<?xml version="1.0" encoding="utf-8"?>
<svg xmlns="http://www.w3.org/2000/svg" width="53.4275mm" height="10.7732mm" version="1.1" style="shape-rendering:geometricPrecision; text-rendering:geometricPrecision; image-rendering:optimizeQuality; fill-rule:evenodd; clip-rule:evenodd" viewBox="0 0 74.35 14.99">
  <defs>
    <style type="text/css">
   
    .fil2 {fill:#D6D6D6;fill-rule:nonzero}
    .fil1 {fill:white;fill-rule:nonzero}
    .fil0 {fill:url(#id0)}
   
  </style>
    <linearGradient id="id0" gradientUnits="userSpaceOnUse" x1="8957.36" y1="12782.3" x2="8957.36" y2="13385.2">
      <stop offset="0" stop-opacity="1" stop-color="#00A2E9"/>
      <stop offset="1" stop-opacity="1" stop-color="#2F318B"/>
    </linearGradient>
  </defs>
  <g id="Layer_x0020_1" style="" transform="matrix(0.013733, 0, 0, 0.013425, -115.658226, -168.539413)">
    <rect fill="url(#id0)" x="8474" y="12687" width="966" height="793" rx="25" ry="122"/>
    <g id="_1896583950368">
      <path fill="#E6212A" d="M8895 13004c-2,-9 -15,-32 -19,-41 -10,-18 -6,-13 -14,-17 -7,-3 -5,-19 0,-21 6,-3 18,3 18,11 -1,10 -4,3 6,21 5,10 18,31 21,39 11,-1 27,-10 31,2l-6 2c-7,2 -9,3 -14,9 1,5 23,47 27,51l29 -49c-5,-8 -10,-8 -20,-11 4,-15 22,-2 30,-1 5,-4 24,-35 29,-45 8,-12 1,-8 5,-17 2,-5 11,-8 17,-7 5,6 5,10 3,19 -8,7 -7,-1 -14,11 -3,5 -6,10 -9,15 -4,7 -16,26 -18,33 6,4 21,15 14,26 -6,-3 -6,-11 -20,-12l-8 12c-31,52 -32,40 -19,64 17,31 58,106 60,137 -11,-5 -36,-48 -44,-64 -6,-11 -33,-65 -37,-70 -4,3 -19,29 -22,34 -7,11 -13,22 -20,34 -9,15 -36,52 -49,60 1,-28 53,-105 71,-133 8,-14 12,-12 4,-27 -5,-9 -23,-46 -28,-51 -18,5 -18,13 -21,10 -6,-10 12,-21 17,-24zm64 -170c-45,0 -78,2 -121,14 -29,8 -22,2 -30,27 -4,15 -8,30 -13,45 -16,60 -34,118 -50,177l-13 45c-1,6 2,8 10,17 4,5 9,10 13,16 37,42 77,73 123,105 9,7 66,45 71,44 10,0 86,-56 102,-69 37,-31 55,-48 89,-82 5,-5 26,-24 24,-31l-63 -223c-2,-6 -16,-61 -20,-63 -15,-11 -96,-22 -122,-22z"/>
      <path fill="#F08519" d="M8959 12834c26,0 107,11 122,22 4,2 18,57 20,63l63 223c2,7 -19,26 -24,31 -34,34 -52,51 -89,82 -16,13 -92,69 -102,69 -5,1 -62,-37 -71,-44 -46,-32 -86,-63 -123,-105 -4,-6 -9,-11 -13,-16 -8,-9 -11,-11 -10,-17l13 -45c16,-59 34,-117 50,-177 5,-15 9,-30 13,-45 8,-25 1,-19 30,-27 43,-12 76,-14 121,-14zm-269 324l24 30c2,2 4,3 5,5 7,9 24,25 32,33l17 16c2,2 3,3 6,5l47 39c15,13 71,51 90,63l33 21c6,3 8,0 21,-8l102 -71 52 -45c2,-2 4,-3 6,-5l22 -22c17,-17 32,-31 48,-49 2,-2 4,-3 6,-5 5,-6 6,-6 4,-14 -19,-62 -41,-140 -59,-203 -3,-12 -6,-22 -9,-34 -8,-30 -22,-73 -29,-102 -19,-4 -48,-13 -68,-17 -86,-12 -163,-11 -247,16 -7,2 -4,2 -9,19 -3,10 -6,20 -9,30l-76 268c-2,4 -9,27 -9,30z"/>
      <path fill="#FEED05" d="M8895 13004c-5,3 -23,14 -17,24 3,3 3,-5 21,-10 5,5 23,42 28,51 8,15 4,13 -4,27 -18,28 -70,105 -71,133 13,-8 40,-45 49,-60 7,-12 13,-23 20,-34 3,-5 18,-31 22,-34 4,5 31,59 37,70 8,16 33,59 44,64 -2,-31 -43,-106 -60,-137 -13,-24 -12,-12 19,-64l8 -12c14,1 14,9 20,12 7,-11 -8,-22 -14,-26 2,-7 14,-26 18,-33 3,-5 6,-10 9,-15 7,-12 6,-4 14,-11 2,-9 2,-13 -3,-19 -6,-1 -15,2 -17,7 -4,9 3,5 -5,17 -5,10 -24,41 -29,45 -8,-1 -26,-14 -30,1 10,3 15,3 20,11l-29 49c-4,-4 -26,-46 -27,-51 5,-6 7,-7 14,-9l6 -2c-4,-12 -20,-3 -31,-2 -3,-8 -16,-29 -21,-39 -10,-18 -7,-11 -6,-21 0,-8 -12,-14 -18,-11 -5,2 -7,18 0,21 8,4 4,-1 14,17 4,9 17,32 19,41z"/>
    </g>
    <g transform="matrix(1 0 0 1 -908.854 -1541.99)">
      <text x="10500" y="14850" fill="#00A2E9" font-weight="900" font-size="689.9px" font-family="Arial Black" style="white-space: pre;">Stream</text>
    </g>
    <g transform="matrix(1 0 0 1 -908.854 -1541.99)">
      <text x="13232" y="14850" fill="white" font-weight="normal" font-size="689.9px" font-family="Arial" style="white-space: pre;">Flow</text>
    </g>
    <g transform="matrix(1 0 0 1 2354.33 -1252.71)">
      <text x="10500" y="14850" fill="white" font-weight="normal" font-size="277.51px" font-family="Arial" style="white-space: pre;">Github</text>
    </g>
  </g>
</svg>